# xmcd CD database file
#
# Track frame offsets:
#	150
#	24510
#	66642
#	93055
#	126632
#	169352
#	201457
#	236392
#	282905
#	311275
#
# Disc length: 4504 seconds
#
# Revision: 5
# Processed by: cddbd v1.5PL3 Copyright (c) Steve Scherf et al.
# Submitted via: CDex 1.51
#
DISCID=9111960a
DTITLE=Bryan Lee - Live At The Old Absinthe House Bar ... Saturday Night
DYEAR=1998
DGENRE=Blues-Rock
TTITLE0=Think
TTITLE1=I'll Play The Blues For You
TTITLE2=I Got A Rich Man's Woman
TTITLE3=How Many More Years
TTITLE4=Look On Yonder Wall
TTITLE5=Dope Smoking Blues
TTITLE6=The Things That I Used To Do
TTITLE7=Love Her With A Feeling
TTITLE8=I'm Ready
TTITLE9=Flip, Flop and Fly
EXTD=YEAR: 1998
EXTT0=
EXTT1=
EXTT2=
EXTT3=
EXTT4=
EXTT5=
EXTT6=
EXTT7=
EXTT8=
EXTT9=
PLAYORDER=
